<mxfile host="app.diagrams.net" modified="2022-12-21T03:28:33.169Z" agent="5.0 (Windows)" version="20.7.4" etag="IHmaSaS3Q129Bio55KLA" type="github">
  <diagram id="IApf1GngUuplUdkZCGgj" name="Page-1">
    <mxGraphModel dx="989" dy="547" grid="1" gridSize="10" guides="1" tooltips="1" connect="1" arrows="1" fold="1" page="1" pageScale="1" pageWidth="850" pageHeight="1100" math="0" shadow="0">
      <root>
        <mxCell id="0" />
        <mxCell id="1" parent="0" />
        <mxCell id="WHl0CZ3w3ENZzOKjDF_t-1" value="Player" style="shape=umlActor;verticalLabelPosition=bottom;verticalAlign=top;html=1;outlineConnect=0;" vertex="1" parent="1">
          <mxGeometry x="270" y="520" width="30" height="60" as="geometry" />
        </mxCell>
        <mxCell id="WHl0CZ3w3ENZzOKjDF_t-2" value="Player" style="shape=umlActor;verticalLabelPosition=bottom;verticalAlign=top;html=1;outlineConnect=0;" vertex="1" parent="1">
          <mxGeometry x="326" y="520" width="30" height="60" as="geometry" />
        </mxCell>
        <mxCell id="WHl0CZ3w3ENZzOKjDF_t-3" value="Player" style="shape=umlActor;verticalLabelPosition=bottom;verticalAlign=top;html=1;outlineConnect=0;" vertex="1" parent="1">
          <mxGeometry x="382" y="520" width="30" height="60" as="geometry" />
        </mxCell>
        <mxCell id="WHl0CZ3w3ENZzOKjDF_t-4" value="Player" style="shape=umlActor;verticalLabelPosition=bottom;verticalAlign=top;html=1;outlineConnect=0;" vertex="1" parent="1">
          <mxGeometry x="438" y="520" width="30" height="60" as="geometry" />
        </mxCell>
        <mxCell id="WHl0CZ3w3ENZzOKjDF_t-5" value="Player" style="shape=umlActor;verticalLabelPosition=bottom;verticalAlign=top;html=1;outlineConnect=0;" vertex="1" parent="1">
          <mxGeometry x="494" y="520" width="30" height="60" as="geometry" />
        </mxCell>
        <mxCell id="WHl0CZ3w3ENZzOKjDF_t-6" value="Player" style="shape=umlActor;verticalLabelPosition=bottom;verticalAlign=top;html=1;outlineConnect=0;" vertex="1" parent="1">
          <mxGeometry x="550" y="520" width="30" height="60" as="geometry" />
        </mxCell>
        <mxCell id="WHl0CZ3w3ENZzOKjDF_t-57" style="edgeStyle=orthogonalEdgeStyle;rounded=0;orthogonalLoop=1;jettySize=auto;html=1;fontSize=24;fontColor=#FFFFFF;endArrow=open;endFill=0;strokeWidth=2;exitX=0;exitY=0.5;exitDx=0;exitDy=0;" edge="1" parent="1" source="WHl0CZ3w3ENZzOKjDF_t-12" target="WHl0CZ3w3ENZzOKjDF_t-56">
          <mxGeometry relative="1" as="geometry">
            <Array as="points">
              <mxPoint x="240" y="490" />
              <mxPoint x="240" y="550" />
            </Array>
          </mxGeometry>
        </mxCell>
        <mxCell id="WHl0CZ3w3ENZzOKjDF_t-7" value="" style="ellipse;whiteSpace=wrap;html=1;aspect=fixed;fillColor=#e51400;fontColor=#ffffff;strokeColor=#B20000;" vertex="1" parent="1">
          <mxGeometry x="275" y="480" width="20" height="20" as="geometry" />
        </mxCell>
        <mxCell id="WHl0CZ3w3ENZzOKjDF_t-8" value="" style="ellipse;whiteSpace=wrap;html=1;aspect=fixed;fillColor=#e51400;fontColor=#ffffff;strokeColor=#B20000;" vertex="1" parent="1">
          <mxGeometry x="331" y="480" width="20" height="20" as="geometry" />
        </mxCell>
        <mxCell id="WHl0CZ3w3ENZzOKjDF_t-9" value="" style="ellipse;whiteSpace=wrap;html=1;aspect=fixed;fillColor=#e51400;fontColor=#ffffff;strokeColor=#B20000;" vertex="1" parent="1">
          <mxGeometry x="387" y="480" width="20" height="20" as="geometry" />
        </mxCell>
        <mxCell id="WHl0CZ3w3ENZzOKjDF_t-10" value="" style="ellipse;whiteSpace=wrap;html=1;aspect=fixed;fillColor=#1ba1e2;fontColor=#ffffff;strokeColor=#006EAF;" vertex="1" parent="1">
          <mxGeometry x="443" y="480" width="20" height="20" as="geometry" />
        </mxCell>
        <mxCell id="WHl0CZ3w3ENZzOKjDF_t-11" value="" style="ellipse;whiteSpace=wrap;html=1;aspect=fixed;fillColor=#1ba1e2;fontColor=#ffffff;strokeColor=#006EAF;" vertex="1" parent="1">
          <mxGeometry x="499" y="480" width="20" height="20" as="geometry" />
        </mxCell>
        <mxCell id="WHl0CZ3w3ENZzOKjDF_t-12" value="" style="ellipse;whiteSpace=wrap;html=1;aspect=fixed;fillColor=#1ba1e2;fontColor=#ffffff;strokeColor=#006EAF;" vertex="1" parent="1">
          <mxGeometry x="555" y="480" width="20" height="20" as="geometry" />
        </mxCell>
        <mxCell id="WHl0CZ3w3ENZzOKjDF_t-13" value="&lt;div&gt;You&#39;re on team BLUE&lt;/div&gt;&lt;div&gt;Don&#39;t tell anyone else&lt;/div&gt;&lt;div&gt;Get all of the &quot;2&quot; cards to your team&lt;br&gt;&lt;/div&gt;" style="shape=callout;whiteSpace=wrap;html=1;perimeter=calloutPerimeter;position2=0.5;" vertex="1" parent="1">
          <mxGeometry x="379.5" y="370" width="147" height="100" as="geometry" />
        </mxCell>
        <mxCell id="WHl0CZ3w3ENZzOKjDF_t-58" style="edgeStyle=orthogonalEdgeStyle;rounded=0;orthogonalLoop=1;jettySize=auto;html=1;entryX=0.5;entryY=1;entryDx=0;entryDy=0;fontSize=24;fontColor=#FFFFFF;endArrow=open;endFill=0;strokeWidth=2;exitX=0;exitY=0.5;exitDx=0;exitDy=0;" edge="1" parent="1" source="WHl0CZ3w3ENZzOKjDF_t-53" target="WHl0CZ3w3ENZzOKjDF_t-56">
          <mxGeometry relative="1" as="geometry" />
        </mxCell>
        <mxCell id="WHl0CZ3w3ENZzOKjDF_t-48" value="1" style="rounded=1;whiteSpace=wrap;html=1;fontSize=24;fontColor=#FFFFFF;" vertex="1" parent="1">
          <mxGeometry x="265" y="610" width="40" height="60" as="geometry" />
        </mxCell>
        <mxCell id="WHl0CZ3w3ENZzOKjDF_t-49" value="2" style="rounded=1;whiteSpace=wrap;html=1;fontSize=24;fontColor=#FFFFFF;" vertex="1" parent="1">
          <mxGeometry x="321" y="610" width="40" height="60" as="geometry" />
        </mxCell>
        <mxCell id="WHl0CZ3w3ENZzOKjDF_t-50" value="1" style="rounded=1;whiteSpace=wrap;html=1;fontSize=24;fontColor=#FFFFFF;" vertex="1" parent="1">
          <mxGeometry x="377" y="610" width="40" height="60" as="geometry" />
        </mxCell>
        <mxCell id="WHl0CZ3w3ENZzOKjDF_t-51" value="2" style="rounded=1;whiteSpace=wrap;html=1;fontSize=24;fontColor=#FFFFFF;" vertex="1" parent="1">
          <mxGeometry x="433" y="610" width="40" height="60" as="geometry" />
        </mxCell>
        <mxCell id="WHl0CZ3w3ENZzOKjDF_t-52" value="2" style="rounded=1;whiteSpace=wrap;html=1;fontSize=24;fontColor=#FFFFFF;" vertex="1" parent="1">
          <mxGeometry x="489" y="610" width="40" height="60" as="geometry" />
        </mxCell>
        <mxCell id="WHl0CZ3w3ENZzOKjDF_t-53" value="1" style="rounded=1;whiteSpace=wrap;html=1;fontSize=24;fontColor=#FFFFFF;" vertex="1" parent="1">
          <mxGeometry x="545" y="610" width="40" height="60" as="geometry" />
        </mxCell>
        <mxCell id="WHl0CZ3w3ENZzOKjDF_t-54" value="&lt;div&gt;You&#39;re on team RED&lt;/div&gt;&lt;div&gt;Don&#39;t tell anyone else&lt;/div&gt;&lt;div&gt;Get all of the &quot;1&quot; cards to your team&lt;br&gt;&lt;/div&gt;" style="shape=callout;whiteSpace=wrap;html=1;perimeter=calloutPerimeter;position2=0.5;" vertex="1" parent="1">
          <mxGeometry x="211.5" y="370" width="147" height="100" as="geometry" />
        </mxCell>
        <mxCell id="WHl0CZ3w3ENZzOKjDF_t-56" value="Pass" style="ellipse;whiteSpace=wrap;html=1;aspect=fixed;fontSize=24;fontColor=#FFFFFF;" vertex="1" parent="1">
          <mxGeometry x="90" y="500" width="100" height="100" as="geometry" />
        </mxCell>
      </root>
    </mxGraphModel>
  </diagram>
</mxfile>
